# Wavefront OBJ file automatically generated by Tiled2Unity

# Vertices (Count = 158)
v -19 -31 0
v -20 -31 0
v -20 -30 0
v -19 -30 0
v -21 -31 0
v -21 -30 0
v -22 -31 0
v -22 -30 0
v -24 -31 0
v -25 -31 0
v -25 -30 0
v -24 -30 0
v -26 -31 0
v -26 -30 0
v -27 -31 0
v -27 -30 0
v -28 -31 0
v -28 -30 0
v -29 -31 0
v -29 -30 0
v -30 -31 0
v -30 -30 0
v -31 -31 0
v -31 -30 0
v -32 -31 0
v -32 -30 0
v -33 -31 0
v -33 -30 0
v -34 -31 0
v -34 -30 0
v -35 -31 0
v -35 -30 0
v -36 -31 0
v -36 -30 0
v -37 -31 0
v -37 -30 0
v -19 -32 0
v -20 -32 0
v -21 -32 0
v -22 -32 0
v -24 -32 0
v -25 -32 0
v -26 -32 0
v -27 -32 0
v -28 -32 0
v -29 -32 0
v -30 -32 0
v -31 -32 0
v -32 -32 0
v -33 -32 0
v -34 -32 0
v -35 -32 0
v -36 -32 0
v -37 -32 0
v -1 -33 0
v -2 -33 0
v -2 -32 0
v -1 -32 0
v -3 -33 0
v -3 -32 0
v -4 -33 0
v -4 -32 0
v -5 -33 0
v -5 -32 0
v -6 -33 0
v -6 -32 0
v -7 -33 0
v -7 -32 0
v -8 -33 0
v -8 -32 0
v -9 -33 0
v -9 -32 0
v -11 -33 0
v -12 -33 0
v -12 -32 0
v -11 -32 0
v -13 -33 0
v -13 -32 0
v -14 -33 0
v -14 -32 0
v -15 -33 0
v -15 -32 0
v -16 -33 0
v -16 -32 0
v -17 -33 0
v -17 -32 0
v -18 -33 0
v -18 -32 0
v -19 -33 0
v -20 -33 0
v -21 -33 0
v -22 -33 0
v -24 -33 0
v -25 -33 0
v -26 -33 0
v -27 -33 0
v -28 -33 0
v -29 -33 0
v -30 -33 0
v -31 -33 0
v -32 -33 0
v -33 -33 0
v -34 -33 0
v -35 -33 0
v -36 -33 0
v -37 -33 0
v -1 -34 0
v -2 -34 0
v -3 -34 0
v -4 -34 0
v -5 -34 0
v -6 -34 0
v -7 -34 0
v -8 -34 0
v -9 -34 0
v -11 -34 0
v -12 -34 0
v -13 -34 0
v -14 -34 0
v -15 -34 0
v -16 -34 0
v -17 -34 0
v -18 -34 0
v -19 -34 0
v -20 -34 0
v -21 -34 0
v -22 -34 0
v -24 -34 0
v -25 -34 0
v -26 -34 0
v -27 -34 0
v -28 -34 0
v -29 -34 0
v -30 -34 0
v -31 -34 0
v -32 -34 0
v -33 -34 0
v -34 -34 0
v -35 -34 0
v -36 -34 0
v -37 -34 0
v -1 -35 0
v -2 -35 0
v -3 -35 0
v -4 -35 0
v -5 -35 0
v -6 -35 0
v -7 -35 0
v -8 -35 0
v -9 -35 0
v -11 -35 0
v -12 -35 0
v -13 -35 0
v -14 -35 0
v -15 -35 0
v -16 -35 0
v -17 -35 0
v -18 -35 0

# Texture cooridinates (Count = 48)
vt 4.069011E-05 0.7500305
vt 0.3332926 0.7500305
vt 0.3332926 0.9999695
vt 4.069011E-05 0.9999695
vt 0.333374 0.7500305
vt 0.666626 0.7500305
vt 0.666626 0.9999695
vt 0.333374 0.9999695
vt 0.6667073 0.7500305
vt 0.9999593 0.7500305
vt 0.9999593 0.9999695
vt 0.6667073 0.9999695
vt 4.069011E-05 0.5000305
vt 0.3332926 0.5000305
vt 0.3332926 0.7499695
vt 4.069011E-05 0.7499695
vt 0.333374 0.5000305
vt 0.666626 0.5000305
vt 0.666626 0.7499695
vt 0.333374 0.7499695
vt 0.6667073 0.5000305
vt 0.9999593 0.5000305
vt 0.9999593 0.7499695
vt 0.6667073 0.7499695
vt 4.069011E-05 0.2500305
vt 0.3332926 0.2500305
vt 0.3332926 0.4999695
vt 4.069011E-05 0.4999695
vt 0.333374 0.2500305
vt 0.666626 0.2500305
vt 0.666626 0.4999695
vt 0.333374 0.4999695
vt 0.6667073 0.2500305
vt 0.9999593 0.2500305
vt 0.9999593 0.4999695
vt 0.6667073 0.4999695
vt 4.069011E-05 3.051758E-05
vt 0.3332926 3.051758E-05
vt 0.3332926 0.2499695
vt 4.069011E-05 0.2499695
vt 0.333374 3.051758E-05
vt 0.666626 3.051758E-05
vt 0.666626 0.2499695
vt 0.333374 0.2499695
vt 0.6667073 3.051758E-05
vt 0.9999593 3.051758E-05
vt 0.9999593 0.2499695
vt 0.6667073 0.2499695

# Normal
vn 0 0 -1

# Groups (Count = 1)

g mesh_0001
f 1/1/1 2/2/1 3/3/1 4/4/1
f 2/5/1 5/6/1 6/7/1 3/8/1
f 5/9/1 7/10/1 8/11/1 6/12/1
f 9/1/1 10/2/1 11/3/1 12/4/1
f 10/5/1 13/6/1 14/7/1 11/8/1
f 13/5/1 15/6/1 16/7/1 14/8/1
f 15/5/1 17/6/1 18/7/1 16/8/1
f 17/5/1 19/6/1 20/7/1 18/8/1
f 19/5/1 21/6/1 22/7/1 20/8/1
f 21/5/1 23/6/1 24/7/1 22/8/1
f 23/5/1 25/6/1 26/7/1 24/8/1
f 25/5/1 27/6/1 28/7/1 26/8/1
f 27/5/1 29/6/1 30/7/1 28/8/1
f 29/5/1 31/6/1 32/7/1 30/8/1
f 31/5/1 33/6/1 34/7/1 32/8/1
f 33/5/1 35/6/1 36/7/1 34/8/1
f 37/13/1 38/14/1 2/15/1 1/16/1
f 38/17/1 39/18/1 5/19/1 2/20/1
f 39/21/1 40/22/1 7/23/1 5/24/1
f 41/13/1 42/14/1 10/15/1 9/16/1
f 42/17/1 43/18/1 13/19/1 10/20/1
f 43/17/1 44/18/1 15/19/1 13/20/1
f 44/17/1 45/18/1 17/19/1 15/20/1
f 45/17/1 46/18/1 19/19/1 17/20/1
f 46/17/1 47/18/1 21/19/1 19/20/1
f 47/17/1 48/18/1 23/19/1 21/20/1
f 48/17/1 49/18/1 25/19/1 23/20/1
f 49/17/1 50/18/1 27/19/1 25/20/1
f 50/17/1 51/18/1 29/19/1 27/20/1
f 51/17/1 52/18/1 31/19/1 29/20/1
f 52/17/1 53/18/1 33/19/1 31/20/1
f 53/17/1 54/18/1 35/19/1 33/20/1
f 55/1/1 56/2/1 57/3/1 58/4/1
f 56/5/1 59/6/1 60/7/1 57/8/1
f 59/5/1 61/6/1 62/7/1 60/8/1
f 61/5/1 63/6/1 64/7/1 62/8/1
f 63/5/1 65/6/1 66/7/1 64/8/1
f 65/5/1 67/6/1 68/7/1 66/8/1
f 67/5/1 69/6/1 70/7/1 68/8/1
f 69/5/1 71/6/1 72/7/1 70/8/1
f 73/5/1 74/6/1 75/7/1 76/8/1
f 74/5/1 77/6/1 78/7/1 75/8/1
f 77/5/1 79/6/1 80/7/1 78/8/1
f 79/5/1 81/6/1 82/7/1 80/8/1
f 81/5/1 83/6/1 84/7/1 82/8/1
f 83/5/1 85/6/1 86/7/1 84/8/1
f 85/9/1 87/10/1 88/11/1 86/12/1
f 89/25/1 90/26/1 38/27/1 37/28/1
f 90/29/1 91/30/1 39/31/1 38/32/1
f 91/33/1 92/34/1 40/35/1 39/36/1
f 93/25/1 94/26/1 42/27/1 41/28/1
f 94/29/1 95/30/1 43/31/1 42/32/1
f 95/29/1 96/30/1 44/31/1 43/32/1
f 96/29/1 97/30/1 45/31/1 44/32/1
f 97/29/1 98/30/1 46/31/1 45/32/1
f 98/29/1 99/30/1 47/31/1 46/32/1
f 99/29/1 100/30/1 48/31/1 47/32/1
f 100/29/1 101/30/1 49/31/1 48/32/1
f 101/29/1 102/30/1 50/31/1 49/32/1
f 102/29/1 103/30/1 51/31/1 50/32/1
f 103/29/1 104/30/1 52/31/1 51/32/1
f 104/29/1 105/30/1 53/31/1 52/32/1
f 105/29/1 106/30/1 54/31/1 53/32/1
f 107/13/1 108/14/1 56/15/1 55/16/1
f 108/17/1 109/18/1 59/19/1 56/20/1
f 109/17/1 110/18/1 61/19/1 59/20/1
f 110/17/1 111/18/1 63/19/1 61/20/1
f 111/17/1 112/18/1 65/19/1 63/20/1
f 112/17/1 113/18/1 67/19/1 65/20/1
f 113/17/1 114/18/1 69/19/1 67/20/1
f 114/17/1 115/18/1 71/19/1 69/20/1
f 116/17/1 117/18/1 74/19/1 73/20/1
f 117/17/1 118/18/1 77/19/1 74/20/1
f 118/17/1 119/18/1 79/19/1 77/20/1
f 119/17/1 120/18/1 81/19/1 79/20/1
f 120/17/1 121/18/1 83/19/1 81/20/1
f 121/17/1 122/18/1 85/19/1 83/20/1
f 122/21/1 123/22/1 87/23/1 85/24/1
f 124/37/1 125/38/1 90/39/1 89/40/1
f 125/41/1 126/42/1 91/43/1 90/44/1
f 126/45/1 127/46/1 92/47/1 91/48/1
f 128/37/1 129/38/1 94/39/1 93/40/1
f 129/41/1 130/42/1 95/43/1 94/44/1
f 130/41/1 131/42/1 96/43/1 95/44/1
f 131/41/1 132/42/1 97/43/1 96/44/1
f 132/41/1 133/42/1 98/43/1 97/44/1
f 133/41/1 134/42/1 99/43/1 98/44/1
f 134/41/1 135/42/1 100/43/1 99/44/1
f 135/41/1 136/42/1 101/43/1 100/44/1
f 136/41/1 137/42/1 102/43/1 101/44/1
f 137/41/1 138/42/1 103/43/1 102/44/1
f 138/41/1 139/42/1 104/43/1 103/44/1
f 139/41/1 140/42/1 105/43/1 104/44/1
f 140/41/1 141/42/1 106/43/1 105/44/1
f 142/25/1 143/26/1 108/27/1 107/28/1
f 143/29/1 144/30/1 109/31/1 108/32/1
f 144/29/1 145/30/1 110/31/1 109/32/1
f 145/29/1 146/30/1 111/31/1 110/32/1
f 146/29/1 147/30/1 112/31/1 111/32/1
f 147/29/1 148/30/1 113/31/1 112/32/1
f 148/29/1 149/30/1 114/31/1 113/32/1
f 149/29/1 150/30/1 115/31/1 114/32/1
f 151/29/1 152/30/1 117/31/1 116/32/1
f 152/29/1 153/30/1 118/31/1 117/32/1
f 153/29/1 154/30/1 119/31/1 118/32/1
f 154/29/1 155/30/1 120/31/1 119/32/1
f 155/29/1 156/30/1 121/31/1 120/32/1
f 156/29/1 157/30/1 122/31/1 121/32/1
f 157/33/1 158/34/1 123/35/1 122/36/1

